<?xml version="1.0" standalone="no"?>
<!DOCTYPE svg PUBLIC "-//W3C//DTD SVG 20010904//EN"
 "http://www.w3.org/TR/2001/REC-SVG-20010904/DTD/svg10.dtd">
<svg version="1.0" xmlns="http://www.w3.org/2000/svg"
 width="512.000000pt" height="512.000000pt" viewBox="0 0 512.000000 512.000000"
 preserveAspectRatio="xMidYMid meet">

<g transform="translate(0.000000,512.000000) scale(0.100000,-0.100000)"
fill="white" stroke="none">
<path d="M2310 4625 c-146 -18 -282 -50 -419 -96 -780 -268 -1323 -958 -1401
-1781 -7 -74 -10 -461 -8 -1140 3 -1019 3 -1027 24 -1054 39 -53 71 -69 134
-69 63 0 95 16 134 69 21 27 21 36 26 1119 6 1078 6 1093 28 1205 110 553 455
1010 953 1258 451 225 985 243 1457 48 133 -55 213 -41 259 46 29 54 29 104 0
155 -28 50 -98 86 -286 149 -288 95 -606 127 -901 91z"/>
<path d="M3935 3976 c-66 -28 -105 -106 -91 -178 4 -20 43 -80 95 -146 237
-304 362 -644 378 -1027 20 -483 -156 -940 -496 -1289 -270 -276 -565 -432
-974 -513 -69 -14 -190 -18 -774 -22 -678 -6 -692 -6 -719 -27 -53 -39 -69
-71 -69 -134 0 -63 16 -95 69 -134 27 -21 39 -21 654 -24 792 -4 903 6 1201
104 781 257 1338 952 1421 1773 54 541 -127 1128 -473 1532 -83 97 -142 120
-222 85z"/>
<path d="M1525 2871 c-92 -24 -173 -90 -215 -176 -35 -73 -35 -199 0 -270 31
-64 91 -124 155 -155 71 -35 197 -35 270 0 64 31 124 91 155 155 35 73 35 199
0 270 -32 64 -92 124 -155 154 -54 25 -156 36 -210 22z"/>
<path d="M2485 2871 c-92 -24 -173 -90 -215 -176 -35 -73 -35 -199 0 -270 31
-64 91 -124 155 -155 71 -35 197 -35 270 0 64 31 124 91 155 155 35 73 35 199
0 270 -32 64 -92 124 -155 154 -54 25 -156 36 -210 22z"/>
<path d="M3445 2871 c-92 -24 -173 -90 -215 -176 -35 -73 -35 -199 0 -270 31
-64 91 -124 155 -155 71 -35 197 -35 270 0 64 31 124 91 155 155 35 73 35 199
0 270 -32 64 -92 124 -155 154 -54 25 -156 36 -210 22z"/>
</g>
</svg>
